PathFileType	4	(X/Y/Z)	..\data\2014014\dynamic\2014014_C4_04.trc
DataRate	CameraRate	NumFrames	NumMarkers	Units	OrigDataRate	OrigDataStartFrame	OrigNumFrames
100.000000	100.000000	4	52	mm	100.000000	155	178
Frame#	Time	L_IAS			L_IPS			R_IPS			R_IAS			L_FTC			L_FLE			L_FME			L_FAX			L_TTC			L_FAL			L_TAM			L_FCC			L_FM1			L_FM2			L_FM5			R_FTC			R_FLE			R_FME			R_FAX			R_TTC			R_FAL			R_TAM			R_FCC			R_FM1			R_FM2			R_FM5			CV7			TV10			SXS			SJN			L_SIA			L_SRS			L_SAA			L_SAE			L_HLE			L_HME			L_UOA			L_RSP			L_UHE			L_HM2			L_HM5			R_SIA			R_SRS			R_SAA			R_SAE			R_HLE			R_HME			R_UOA			R_RSP			R_UHE			R_HM2			R_HM5			
		X1	Y1	Z1	X2	Y2	Z2	X3	Y3	Z3	X4	Y4	Z4	X5	Y5	Z5	X6	Y6	Z6	X7	Y7	Z7	X8	Y8	Z8	X9	Y9	Z9	X10	Y10	Z10	X11	Y11	Z11	X12	Y12	Z12	X13	Y13	Z13	X14	Y14	Z14	X15	Y15	Z15	X16	Y16	Z16	X17	Y17	Z17	X18	Y18	Z18	X19	Y19	Z19	X20	Y20	Z20	X21	Y21	Z21	X22	Y22	Z22	X23	Y23	Z23	X24	Y24	Z24	X25	Y25	Z25	X26	Y26	Z26	X27	Y27	Z27	X28	Y28	Z28	X29	Y29	Z29	X30	Y30	Z30	X31	Y31	Z31	X32	Y32	Z32	X33	Y33	Z33	X34	Y34	Z34	X35	Y35	Z35	X36	Y36	Z36	X37	Y37	Z37	X38	Y38	Z38	X39	Y39	Z39	X40	Y40	Z40	X41	Y41	Z41	X42	Y42	Z42	X43	Y43	Z43	X44	Y44	Z44	X45	Y45	Z45	X46	Y46	Z46	X47	Y47	Z47	X48	Y48	Z48	X49	Y49	Z49	X50	Y50	Z50	X51	Y51	Z51	X52	Y52	Z52	

156	1.55	1627.313110351563	999.1086425781252	-399.7098693847657	1419.134521484375	1017.186157226563	-314.9447021484376	1418.89111328125	1012.195495605469	-210.921127319336	1623.510986328125	1002.564880371094	-146.0215911865235	1534.831909179688	898.3809814453127	-459.9351196289064	1485.920532226563	497.7224731445314	-387.8370971679689	1491.04541015625	494.323944091797	-251.6457672119141	1459.290893554688	439.4219055175782	-388.2745056152345	1530.007690429688	421.0050659179689	-339.6072082519532	1410.610107421875	68.2064666748047	-349.4983825683594	1439.36328125	99.4230651855469	-254.4853973388672	1360.478149414063	24.95502471923829	-292.1168212890626	1561.649658203125	20.61897659301758	-262.1279907226563	1576.045288085938	36.30979919433594	-321.3894653320313	1518.579223632813	16.96067237854004	-379.0991516113282	1572.805541992188	902.6638183593752	-77.56846618652345	1701.107177734375	508.7842712402345	-108.2552185058594	1739.404418945313	516.0623168945314	-232.8179626464844	1671.824340820313	458.2132873535157	-107.8105163574219	1744.136840820313	442.7714233398439	-149.5424194335938	1550.121337890625	110.0374069213867	-157.1078491210938	1602.466186523438	131.0770263671875	-244.7449951171876	1513.716064453125	81.04140472412111	-227.4345092773438	1710.472045898438	37.75196075439454	-219.3658447265626	1699.700805664063	56.28625488281251	-165.1849212646485	1652.609619140625	42.70441818237305	-120.6672897338867	1478.462646484375	1540.056274414063	-270.3118286132813	1378.808349609375	1298.251831054688	-276.3762512207032	1649.555297851563	1260.645141601563	-266.6082153320313	1601.504760742188	1443.891845703125	-260.8964538574219	1368.966918945313	1330.790405273438	-392.3287963867189	1414.195678710938	1469.312377929688	-389.8169250488282	1460.723876953125	1467.540161132813	-451.626678466797	1509.975341796875	1462.164306640625	-473.7049560546876	1553.132446289063	1127.609008789063	-576.8685913085939	1504.84521484375	1106.8671875	-497.3169860839845	1515.30810546875	1096.1904296875	-554.5009765625001	1710.447143554688	910.365661621094	-511.6992797851564	1649.745849609375	887.9468383789065	-574.3126831054689	1766.33984375	840.952087402344	-524.8566284179689	1672.146606445313	807.1147460937502	-577.4557495117189	1357.776733398438	1323.393798828125	-159.1736450195313	1413.8916015625	1464.078247070313	-142.0514221191407	1454.072387695313	1447.604248046875	-70.44944763183595	1502.583740234375	1441.728271484375	-53.1849937438965	1486.595092773438	1099.434448242188	17.35509109497071	1472.715454101563	1087.69677734375	-81.7379837036133	1449.386474609375	1079.504638671875	-17.37716674804688	1597.884643554688	855.3121337890627	-31.104154586792	1526.676391601563	852.9924316406252	27.33368682861329	1632.383666992188	764.5875854492189	-8.632214546203615	1524.808471679688	753.8442993164064	21.94583320617676	
157	1.56	1637.632202148438	997.476501464844	-399.6630859375001	1429.4033203125	1016.1533203125	-314.8388366699219	1429.103515625	1011.117248535156	-210.9477844238282	1633.80029296875	1001.701171875	-145.9772338867188	1544.119506835938	897.1812744140627	-459.7984008789064	1489.79248046875	497.5619201660157	-387.380828857422	1495.0205078125	494.1242675781251	-251.1747741699219	1462.482299804688	439.6419372558595	-387.7475891113282	1533.015991210938	420.2520141601564	-339.4644165039063	1410.691162109375	68.41415405273439	-348.9990234375001	1440.06787109375	99.58604431152347	-254.1358947753907	1360.526733398438	25.46138191223145	-291.4539489746094	1561.823852539063	20.55013275146485	-262.2744750976563	1576.179809570313	36.17613220214844	-321.4819030761719	1518.511596679688	16.87154388427735	-379.0437622070313	1583.803466796875	901.9943847656252	-77.53224945068361	1712.136840820313	507.5317382812501	-110.5317153930664	1749.293212890625	515.0900268554689	-235.0973358154297	1684.4541015625	455.6761779785157	-110.0873641967774	1758.128540039063	443.3161010742189	-150.811996459961	1585.644775390625	100.1167297363282	-157.4969940185547	1637.60302734375	124.1173400878907	-244.4301452636719	1552.301513671875	68.80214691162111	-228.2703247070313	1750.934692382813	37.61409759521485	-216.6284637451172	1738.102294921875	55.31310272216798	-162.8407135009766	1691.124877929688	39.21732711791993	-118.9433364868164	1488.776489257813	1538.907958984375	-270.2277221679688	1389.132568359375	1297.140502929688	-277.0121459960938	1659.839111328125	1259.4501953125	-266.4697875976563	1611.7177734375	1442.607177734375	-260.4518432617188	1379.863525390625	1329.851318359375	-393.2195434570314	1424.99755859375	1468.41748046875	-390.275848388672	1471.799438476563	1466.78369140625	-451.8264770507814	1521.14453125	1461.528564453125	-473.6995544433595	1566.567260742188	1127.5810546875	-577.6914672851564	1518.021850585938	1106.119873046875	-498.5648193359376	1528.739379882813	1095.661743164063	-555.7750854492189	1726.742797851563	912.6643066406252	-510.9605712890626	1666.743896484375	889.2094726562502	-574.0913085937501	1783.5498046875	844.0757446289065	-523.5618896484376	1690.476196289063	808.755065917969	-576.9285278320314	1367.447998046875	1321.953735351563	-160.3609619140625	1423.590209960938	1462.569946289063	-142.5777740478516	1463.1591796875	1445.82177734375	-71.33594512939455	1511.793212890625	1439.810424804688	-53.42790603637697	1494.290649414063	1097.61865234375	16.56241607666016	1481.035034179688	1086.108276367188	-82.60971832275392	1457.28515625	1077.819946289063	-18.4742660522461	1605.83935546875	853.623718261719	-31.20305252075196	1533.8125	851.0449218750002	26.18564033508301	1640.103637695313	762.8572998046876	-8.386404991149904	1531.975219726563	751.8806762695314	20.40456008911133	
158	1.57	1648.0322265625	995.7622680664065	-399.4897460937501	1439.746459960938	1015.025390625	-314.6964111328126	1439.396240234375	1009.860595703125	-210.9458007812501	1644.142333984375	1000.63720703125	-145.8067169189453	1553.523193359375	895.9514770507815	-459.6428833007814	1493.843627929688	497.3958435058595	-386.9230957031251	1499.214477539063	493.8931579589845	-250.6975860595704	1465.849243164063	439.8697204589845	-387.2085266113282	1536.151489257813	419.4987182617189	-339.3501892089844	1410.785522460938	68.65895843505861	-348.4731445312501	1440.824584960938	99.76359558105472	-253.7790832519532	1360.65576171875	25.98105430603028	-290.7076110839844	1561.986450195313	20.47300338745118	-262.3836975097657	1576.3056640625	36.01044464111329	-321.5531616210938	1518.423828125	16.78761100769043	-378.9658508300782	1594.666625976563	900.998718261719	-77.47561645507814	1722.398071289063	505.902313232422	-112.9573745727539	1758.701416015625	513.7201538085939	-237.5675659179688	1696.558959960938	452.9269409179689	-112.493881225586	1771.455932617188	443.6822509765626	-152.1237945556641	1621.34765625	91.33824920654298	-157.4964752197266	1672.805541992188	118.2937850952149	-243.7274932861329	1591.253540039063	57.84858322143556	-228.6459960937501	1790.96142578125	38.84909820556641	-213.4067687988282	1776.115966796875	55.60351562500001	-160.0299224853516	1729.35400390625	36.99539184570313	-116.7437438964844	1499.135864257813	1537.616455078125	-270.0560607910157	1399.51220703125	1295.891235351563	-277.5210266113282	1670.20361328125	1258.120849609375	-266.2179565429688	1621.9931640625	1441.173828125	-259.8988952636719	1390.81884765625	1328.761840820313	-393.9818420410157	1435.865844726563	1467.371459960938	-390.643035888672	1482.946044921875	1465.856811523438	-451.9317321777345	1532.389282226563	1460.70849609375	-473.5939331054689	1579.835571289063	1127.375854492188	-578.4061889648439	1531.0625	1105.21484375	-499.7005310058595	1542.068725585938	1094.95751953125	-556.9212036132814	1742.738403320313	914.7315063476565	-510.1423645019532	1683.43603515625	890.2939453125002	-573.7686767578126	1800.433227539063	846.9837036132815	-522.2131347656251	1708.46435546875	810.223571777344	-576.3059082031251	1377.194580078125	1320.367797851563	-161.4459533691407	1433.34912109375	1460.921020507813	-143.0066986083985	1472.328979492188	1443.89111328125	-72.08712005615236	1521.059204101563	1437.763427734375	-53.55638122558595	1502.144165039063	1095.669067382813	15.85580539703369	1489.486572265625	1084.378662109375	-83.39115142822267	1465.340087890625	1075.997680664063	-19.47705268859864	1613.87548828125	851.7565917968752	-31.32615470886231	1541.148559570313	848.9791259765627	25.15199089050294	1647.899658203125	760.9376831054689	-8.199608802795412	1539.322631835938	749.8232421875001	19.0822811126709	
159	1.58	1658.502319335938	993.989440917969	-399.2189025878907	1450.16796875	1013.803955078125	-314.5068969726563	1449.777099609375	1008.437255859375	-210.8993530273438	1654.552368164063	999.3814697265627	-145.5312805175782	1563.044555664063	894.693298339844	-459.4752502441407	1498.10888671875	497.2247314453126	-386.460662841797	1503.685546875	493.6275024414064	-250.2173156738282	1469.424682617188	440.1041564941407	-386.6553344726564	1539.466552734375	418.7469177246095	-339.2523193359376	1410.904174804688	68.95740509033205	-347.9230041503907	1441.643676757813	99.96989440917972	-253.4136047363282	1360.87109375	26.53142547607423	-289.8787536621094	1562.134155273438	20.39605712890625	-262.4537048339844	1576.417358398438	35.82059478759766	-321.6040039062501	1518.314575195313	16.7197322845459	-378.8639221191407	1605.38818359375	899.6843261718752	-77.39492797851564	1731.9638671875	503.9619140625001	-115.5260848999024	1767.724609375	512.0615844726564	-240.2175750732422	1708.2099609375	450.033905029297	-115.016960144043	1784.166137695313	443.9169311523439	-153.5096588134766	1656.908447265625	83.84127807617189	-157.1141815185547	1707.754760742188	113.6953659057617	-242.6768798828126	1630.181274414063	48.31572341918947	-228.5464477539063	1830.203491210938	41.46861267089844	-209.8075408935547	1813.441650390625	57.20349121093751	-156.8491363525391	1767.00830078125	36.12176895141602	-114.1370849609375	1509.542724609375	1536.199584960938	-269.7923583984376	1409.948486328125	1294.518920898438	-277.8950805664063	1680.64111328125	1256.6748046875	-265.8551635742188	1632.333618164063	1439.612060546875	-259.2380676269532	1401.83203125	1327.53857421875	-394.6032104492189	1446.794555664063	1466.19091796875	-390.9093627929689	1494.156616210938	1464.776245117188	-451.9368591308595	1543.702026367188	1459.720458984375	-473.3819580078126	1592.93603515625	1127.006958007813	-579.0023193359376	1543.96142578125	1104.167846679688	-500.712127685547	1555.307373046875	1094.089599609375	-557.9239501953126	1758.407958984375	916.5606689453127	-509.2519836425782	1699.803955078125	891.2017822265627	-573.3494262695314	1816.971435546875	849.6610107421877	-520.8202514648439	1726.081420898438	811.5181884765627	-575.6005859375001	1387.02685546875	1318.660278320313	-162.4046630859375	1443.177734375	1459.150268554688	-143.3268432617188	1481.6064453125	1441.83447265625	-72.66506195068361	1530.395141601563	1435.618041992188	-53.55846786499025	1510.156372070313	1093.6064453125	15.23983383178711	1498.084594726563	1082.533813476563	-84.07762145996095	1473.554321289063	1074.060424804688	-20.3807487487793	1621.996826171875	849.730651855469	-31.48124504089356	1548.6923828125	846.8182373046877	24.23758506774903	1655.777465820313	758.8521728515626	-8.089362144470217	1546.8564453125	747.6929931640626	17.98248291015625	
